<?xml version="1.0" encoding="UTF-8" standalone="no"?>
<svg
  xmlns:dc="http://purl.org/dc/elements/1.1/"
  xmlns:cc="http://creativecommons.org/ns#"
  xmlns:rdf="http://www.w3.org/1999/02/22-rdf-syntax-ns#"
  xmlns:svg="http://www.w3.org/2000/svg"
  xmlns="http://www.w3.org/2000/svg"
  viewBox="0 0 1579.8267 235.66667"
  version="1.1">
  <g transform="matrix(1.3333333,0,0,-1.3333333,0,235.66667)" id="g10">
    <g transform="scale(0.1)" id="g12"><path id="path14" style="fill:#100f0d;fill-opacity:1;fill-rule:nonzero;stroke:none" d="m 1074.88,417.879 87.56,-56.93 L 1158.45,0 1077.62,56.9297"/><path id="path16" style="fill:#100f0d;fill-opacity:1;fill-rule:nonzero;stroke:none" d="m 415.566,1767.53 94.762,-67.41 -13.918,-349.5 -93.414,72.54"/>
      <g id="g18">
        <g clip-path="url(#clipPath24)" id="g20"><path id="path32" style="fill:currentColor;fill-opacity:1;fill-rule:nonzero;stroke:none" d="M 0,56.9297 V 1767.53 H 415.566 V 416.941 H 1077.62 V 56.9297 H 0"/></g>
      </g>
      <g id="g34">
        <g clip-path="url(#clipPath40)" id="g36"><path id="path50" style="fill:currentColor;fill-opacity:1;fill-rule:nonzero;stroke:none" d="M 1574,1710.59 V 0 H 1158.45 V 1350.62 H 496.41 v 359.97 H 1574"/></g>
      </g><path id="path52" style="fill:currentColor;fill-opacity:1;fill-rule:nonzero;stroke:none" d="M 2305.26,382.969 V 1189.01 H 2501.1 V 552.621 H 2813 V 382.969 h -507.74"/><path
        id="path54"
        style="fill:currentColor;fill-opacity:1;fill-rule:nonzero;stroke:none"
        d="m 3672.55,789.434 c 0,34.898 -5.7,67.511 -17.11,97.882 -11.36,30.364 -27.11,56.372 -47.23,78.075 -20.12,21.566 -44.45,38.629 -72.9,51.199 -28.42,12.48 -59.73,18.75 -93.86,18.75 -34.15,0 -65.33,-6.27 -93.4,-18.75 -28.07,-12.57 -52.34,-29.633 -72.8,-51.199 -20.52,-21.703 -36.31,-47.711 -47.26,-78.075 -11.03,-30.371 -16.54,-62.984 -16.54,-97.882 0,-36.375 5.67,-69.985 17.12,-100.762 11.32,-30.703 27.08,-57.082 47.21,-79.07 20.09,-22.082 44.2,-39.352 72.27,-51.793 28.07,-12.528 59.25,-18.84 93.4,-18.84 34.13,0 65.25,6.312 93.32,18.84 28.07,12.441 52.38,29.711 72.83,51.793 20.52,21.988 36.48,48.367 47.84,79.07 11.41,30.777 17.11,64.387 17.11,100.762 z m 208.31,0 c 0,-63.723 -11,-122.012 -33.03,-174.786 -21.99,-52.687 -52.58,-97.839 -91.6,-135.418 -39.14,-37.582 -85.61,-66.628 -139.51,-87.082 -53.88,-20.476 -112.28,-30.726 -175.27,-30.726 -63.03,0 -121.25,10.25 -174.77,30.726 -53.5,20.454 -99.82,49.5 -138.9,87.082 -39.11,37.579 -69.65,82.731 -91.63,135.418 -22.02,52.774 -33.03,111.063 -33.03,174.786 0,64.527 11.01,122.769 33.03,174.761 21.98,51.965 52.52,96.215 91.63,132.625 39.08,36.44 85.4,64.48 138.9,84.23 53.52,19.75 111.74,29.61 174.77,29.61 62.99,0 121.39,-9.86 175.27,-29.61 53.9,-19.75 100.37,-47.79 139.51,-84.23 39.02,-36.41 69.61,-80.66 91.6,-132.625 22.03,-51.992 33.03,-110.234 33.03,-174.761"/><path
        id="path56"
        style="fill:currentColor;fill-opacity:1;fill-rule:nonzero;stroke:none"
        d="m 4757.42,397.289 c -52.33,-23.98 -112.67,-35.867 -181.02,-35.867 -62.22,0 -119.76,10.25 -172.46,30.726 -52.77,20.454 -98.45,49.5 -137.17,87.082 -38.71,37.579 -69.08,82.489 -91.11,134.93 -21.99,52.352 -32.99,110.02 -32.99,173 0,64.473 11.22,122.973 33.59,175.336 22.38,52.344 53.29,96.994 92.78,133.744 39.45,36.81 85.76,65.06 138.91,84.81 53.09,19.75 110.42,29.61 171.88,29.61 56.95,0 112.88,-10.03 167.92,-30.19 54.98,-20.08 99.63,-49.46 133.77,-88.2 L 4749.47,960.25 c -18.2,25.023 -42.13,43.6 -71.73,55.76 -29.59,12.11 -59.97,18.17 -91.05,18.17 -34.16,0 -65.51,-6.22 -93.97,-18.75 -28.45,-12.53 -52.89,-29.789 -73.38,-51.821 -20.5,-22.027 -36.5,-48.004 -47.88,-77.968 -11.36,-29.993 -17.04,-62.805 -17.04,-98.481 0,-36.43 5.68,-69.871 17.04,-100.199 11.38,-30.371 27.12,-56.352 47.27,-77.973 20.1,-21.597 44.19,-38.488 72.32,-50.597 28.07,-12.192 58.82,-18.25 92.21,-18.25 38.72,0 72.45,7.55 101.33,22.691 28.82,15.238 51.94,34.887 69.45,59.25 L 4889.51,494.59 c -35.68,-40.988 -79.71,-73.43 -132.09,-97.301"/><path
        id="path58"
        style="fill:currentColor;fill-opacity:1;fill-rule:nonzero;stroke:none"
        d="M 5459.89,973.848 5357.43,697.219 h 202.65 z m 216.26,-590.879 -62.55,158.293 h -312.01 l -59.15,-158.293 h -211.77 l 338.13,806.041 h 188.93 l 334.75,-806.041 h -216.33"/><path id="path60" style="fill:currentColor;fill-opacity:1;fill-rule:nonzero;stroke:none" d="m 6130.42,382.969 v 806.041 h 195.76 V 552.621 h 311.94 V 382.969 h -507.7"/><path id="path62" style="fill:currentColor;fill-opacity:1;fill-rule:nonzero;stroke:none" d="m 7328.02,382.969 v 806.041 h 195.84 V 552.621 H 7835.8 V 382.969 h -507.78"/><path
        id="path64"
        style="fill:currentColor;fill-opacity:1;fill-rule:nonzero;stroke:none"
        d="m 8695.25,789.434 c 0,34.898 -5.66,67.511 -17,97.882 -11.43,30.364 -27.18,56.372 -47.31,78.075 -20.17,21.566 -44.39,38.629 -72.88,51.199 -28.38,12.48 -59.75,18.75 -93.91,18.75 -34.12,0 -65.26,-6.27 -93.28,-18.75 -28.14,-12.57 -52.38,-29.633 -72.88,-51.199 -20.53,-21.703 -36.32,-47.711 -47.22,-78.075 -11.02,-30.371 -16.54,-62.984 -16.54,-97.882 0,-36.375 5.69,-69.985 17.09,-100.762 11.36,-30.703 27.12,-57.082 47.19,-79.07 20.11,-22.082 44.22,-39.352 72.36,-51.793 28.02,-12.528 59.16,-18.84 93.28,-18.84 34.16,0 65.29,6.312 93.4,18.84 28.08,12.441 52.34,29.711 72.87,51.793 20.42,21.988 36.4,48.367 47.83,79.07 11.34,30.777 17,64.387 17,100.762 z m 208.33,0 c 0,-63.723 -11.02,-122.012 -32.97,-174.786 -22.03,-52.687 -52.56,-97.839 -91.61,-135.418 -39.18,-37.582 -85.65,-66.628 -139.42,-87.082 -53.95,-20.476 -112.38,-30.726 -175.43,-30.726 -63.03,0 -121.23,10.25 -174.71,30.726 -53.57,20.454 -99.82,49.5 -138.87,87.082 -39.13,37.579 -69.65,82.731 -91.65,135.418 -21.99,52.774 -33.07,111.063 -33.07,174.786 0,64.527 11.08,122.769 33.07,174.761 22,51.965 52.52,96.215 91.65,132.625 39.05,36.44 85.3,64.48 138.87,84.23 53.48,19.75 111.68,29.61 174.71,29.61 63.05,0 121.48,-9.86 175.43,-29.61 53.77,-19.75 100.24,-47.79 139.42,-84.23 39.05,-36.41 69.58,-80.66 91.61,-132.625 21.95,-51.992 32.97,-110.234 32.97,-174.761"/><path
        id="path66"
        style="fill:currentColor;fill-opacity:1;fill-rule:nonzero;stroke:none"
        d="m 9780.75,381.859 c -52.77,-12.91 -110.24,-19.328 -172.42,-19.328 -64.58,0 -124.01,10.188 -178.18,30.699 -54.26,20.489 -100.98,49.411 -140.05,86.579 -39.1,37.132 -69.63,81.793 -91.62,133.761 -22.07,51.942 -33.08,109.871 -33.08,173.59 0,64.473 11.27,122.973 33.64,175.336 22.33,52.344 53.23,96.994 92.73,133.744 39.47,36.81 85.79,65.06 138.89,84.81 53.19,19.75 110.48,29.61 171.92,29.61 63.72,0 122.97,-9.71 177.66,-29 54.64,-19.37 98.98,-45.37 133.17,-78.03 L 9790.4,963.609 c -18.97,22.032 -43.97,40.031 -75.07,54.061 -31.18,14.09 -66.46,21.06 -105.92,21.06 -34.15,0 -65.66,-6.21 -94.45,-18.73 -28.86,-12.54 -53.93,-29.965 -75.15,-52.363 -21.27,-22.407 -37.8,-48.953 -49.55,-79.703 -11.82,-30.731 -17.64,-64.301 -17.64,-100.774 0,-37.219 5.31,-71.308 15.96,-102.441 10.59,-31.149 26.41,-57.91 47.25,-80.278 20.9,-22.402 46.64,-39.82 77.37,-52.359 30.71,-12.523 65.82,-18.832 105.35,-18.832 22.76,0 44.3,1.738 64.86,5.16 20.5,3.371 39.52,8.942 56.96,16.531 v 146.84 H 9586.68 V 858.879 H 9919.1 V 431.98 c -39.52,-20.539 -85.59,-37.128 -138.35,-50.121"/><path id="path68" style="fill:currentColor;fill-opacity:1;fill-rule:nonzero;stroke:none" d="m 10249.2,382.969 v 806.041 h 195.9 V 382.969 h -195.9"/><path
        id="path70"
        style="fill:currentColor;fill-opacity:1;fill-rule:nonzero;stroke:none"
        d="m 11359.2,397.289 c -52.4,-23.98 -112.7,-35.867 -181.1,-35.867 -62.1,0 -119.6,10.25 -172.4,30.726 -52.7,20.454 -98.5,49.5 -137.1,87.082 -38.8,37.579 -69.2,82.489 -91.1,134.93 -22,52.352 -33,110.02 -33,173 0,64.473 11.1,122.973 33.5,175.336 22.4,52.344 53.4,96.994 92.8,133.744 39.4,36.81 85.8,65.06 138.9,84.81 53,19.75 110.5,29.61 171.9,29.61 56.9,0 112.9,-10.03 167.9,-30.19 55,-20.08 99.7,-49.46 133.8,-88.2 l -132,-132.02 c -18.3,25.023 -42.3,43.6 -71.8,55.76 -29.6,12.11 -60,18.17 -91.1,18.17 -34.1,0 -65.4,-6.22 -93.9,-18.75 -28.5,-12.53 -52.9,-29.789 -73.5,-51.821 -20.4,-22.027 -36.4,-48.004 -47.7,-77.968 -11.4,-29.993 -17.1,-62.805 -17.1,-98.481 0,-36.43 5.7,-69.871 17.1,-100.199 11.3,-30.371 27.1,-56.352 47.2,-77.973 20,-21.597 44.2,-38.488 72.3,-50.597 28.1,-12.192 58.8,-18.25 92.2,-18.25 38.7,0 72.5,7.55 101.3,22.691 28.9,15.238 52,34.887 69.5,59.25 l 135.5,-127.492 c -35.7,-40.988 -79.7,-73.43 -132.1,-97.301"/><path
        id="path72"
        style="fill:#4a4a4c;fill-opacity:1;fill-rule:nonzero;stroke:none"
        d="m 11841.1,1347.17 v 134.07 h -0.6 l -58,-134.07 h -4.4 l -57,134.07 h -0.6 v -134.07 h -7.6 v 141.27 h 12.7 l 54.9,-129.26 55.2,129.26 h 13 v -141.27 z m -210.5,134.76 v -134.76 h -7.5 v 134.76 h -45.6 v 6.51 h 99.1 v -6.51 h -46"/></g>
  </g>
</svg>
